# xmcd
#
# Track frame offsets:
#	150
#	18541
#	43450
#	57979
#	80507
#	99602
#	115025
#	135542
#	150417
#	167732
#	181234
#	198480
#	216116
#	240720
#	254512
#	275688
#
# Disc length: 4031 seconds
#
# Revision: 1
# Processed by: cddbd v1.5.1PL0 Copyright (c) Steve Scherf et al.
# Submitted via: audiograbber 1.82.01
#
DISCID=e50fbd10
DTITLE=Tullio de Piscopo - Live in Zurich at Moods Club
DYEAR=2004
DGENRE=Blues
TTITLE0=Pummarola Blues (Guest Alex Britti)
TTITLE1=Stop Bajon (Guest James Senese)
TTITLE2=Qui Gatta ci Cova
TTITLE3=Libero (Guest Fausto Leali)
TTITLE4=Radio Africa (Guest Lino Cannavacciuolo)
TTITLE5=Sarà Sarà Chissà
TTITLE6=Andamento Lento
TTITLE7=Torero
TTITLE8=E' Allora è Allora
TTITLE9=Mo' Vene Natale
TTITLE10=Verdiana (dal Requiem di Giuseppe Verdi)
TTITLE11=Guaglione
TTITLE12=Jastaò
TTITLE13=O' Sarracino
TTITLE14=E Fatto e Sordee!! (Guest Lino Cannavacciuolo)
TTITLE15=Bitter Sweet (Guest Buddy De Franco)
EXTD=
EXTT0=
EXTT1=
EXTT2=
EXTT3=
EXTT4=
EXTT5=
EXTT6=
EXTT7=
EXTT8=
EXTT9=
EXTT10=
EXTT11=
EXTT12=
EXTT13=
EXTT14=
EXTT15=
PLAYORDER=
